<svg width="15" height="15" viewBox="0 0 15 15" fill="none" xmlns="http://www.w3.org/2000/svg">
<path d="M9.88672 4.93359L9.53125 3.59375L8.19141 3.23828C8.08203 3.18359 8 3.07422 8 2.9375C8 2.82812 8.08203 2.71875 8.19141 2.66406L9.53125 2.28125L9.88672 0.96875C9.94141 0.859375 10.0508 0.75 10.1875 0.75C10.2969 0.75 10.4062 0.859375 10.4609 0.96875L10.8438 2.28125L12.1562 2.66406C12.2656 2.71875 12.375 2.82812 12.375 2.9375C12.375 3.07422 12.2656 3.18359 12.1562 3.23828L10.8438 3.59375L10.4609 4.93359C10.4062 5.04297 10.2969 5.125 10.1875 5.125C10.0508 5.125 9.94141 5.04297 9.88672 4.93359ZM6.82422 5.07031L8.08203 7.64062L10.9258 8.05078C11.4453 8.13281 11.6641 8.78906 11.2812 9.17188L9.23047 11.168L9.72266 13.9844C9.80469 14.5312 9.25781 14.9414 8.76562 14.6953L6.22266 13.3555L3.70703 14.6953C3.21484 14.9414 2.66797 14.5312 2.75 13.9844L3.24219 11.168L1.19141 9.17188C0.808594 8.78906 1 8.13281 1.54688 8.05078L4.39062 7.64062L5.64844 5.07031C5.89453 4.57812 6.57812 4.57812 6.82422 5.07031ZM12.7031 7.42188L11.6641 7.12109C11.5547 7.09375 11.5 6.98438 11.5 6.875C11.5 6.79297 11.5547 6.68359 11.6641 6.65625L12.7031 6.35547L13.0039 5.31641C13.0312 5.20703 13.1406 5.125 13.25 5.125C13.332 5.125 13.4414 5.20703 13.4688 5.31641L13.7695 6.35547L14.8086 6.65625C14.918 6.68359 15 6.79297 15 6.875C15 6.98438 14.918 7.09375 14.8086 7.12109L13.7695 7.42188L13.4688 8.46094C13.4414 8.57031 13.332 8.625 13.25 8.625C13.1406 8.625 13.0312 8.57031 13.0039 8.46094L12.7031 7.42188Z" fill="#6870DA"/>
</svg>
