<svg width="40" height="40" viewBox="0 0 40 40" fill="none" xmlns="http://www.w3.org/2000/svg">
<g clip-path="url(#clip0_290_24059)">
<path d="M10.2057 27.9167V31.5417M15.0391 27.9167V31.5417M19.8724 27.9167V31.5417M4.16406 36.375H25.9141M4.16406 23.0833H25.9141M4.16406 19.4583L15.0391 14.625L25.9141 19.4583M5.3724 23.0833H24.7057V36.375H5.3724V23.0833Z" stroke="#9CA3AF" stroke-width="2" stroke-linecap="round" stroke-linejoin="round"/>
<path d="M31.9493 8.15538C32.3113 8.57252 32.9428 8.61726 33.36 8.2553C33.7771 7.89335 33.8219 7.26176 33.4599 6.84462L31.9493 8.15538ZM29.1288 11.8446C28.7669 11.4275 28.1353 11.3827 27.7182 11.7447C27.301 12.1067 27.2563 12.7382 27.6182 13.1554L29.1288 11.8446ZM31.5391 5.83333C31.5391 5.28105 31.0913 4.83333 30.5391 4.83333C29.9868 4.83333 29.5391 5.28105 29.5391 5.83333H31.5391ZM29.5391 14.1666C29.5391 14.7189 29.9868 15.1667 30.539 15.1667C31.0913 15.1667 31.5391 14.719 31.5391 14.1667L29.5391 14.1666ZM37.0391 10C37.0391 13.5899 34.1289 16.5 30.5391 16.5V18.5C35.2335 18.5 39.0391 14.6944 39.0391 10H37.0391ZM30.5391 16.5C26.9492 16.5 24.0391 13.5899 24.0391 10H22.0391C22.0391 14.6944 25.8446 18.5 30.5391 18.5V16.5ZM24.0391 10C24.0391 6.41015 26.9492 3.5 30.5391 3.5V1.5C25.8446 1.5 22.0391 5.30558 22.0391 10H24.0391ZM30.5391 3.5C34.1289 3.5 37.0391 6.41015 37.0391 10H39.0391C39.0391 5.30558 35.2335 1.5 30.5391 1.5V3.5ZM30.5391 9C30.0186 9 29.5926 8.85755 29.326 8.67979C29.0524 8.49738 29.0391 8.35519 29.0391 8.33333H27.0391C27.0391 9.23195 27.5854 9.9231 28.2166 10.3439C28.8548 10.7694 29.6788 11 30.5391 11V9ZM29.0391 8.33333C29.0391 8.31148 29.0524 8.16929 29.326 7.98687C29.5926 7.80911 30.0186 7.66667 30.5391 7.66667V5.66667C29.6788 5.66667 28.8548 5.89732 28.2166 6.32277C27.5854 6.74357 27.0391 7.43471 27.0391 8.33333H29.0391ZM30.5391 7.66667C31.2578 7.66667 31.7554 7.93194 31.9493 8.15538L33.4599 6.84462C32.7893 6.07172 31.6711 5.66667 30.5391 5.66667V7.66667ZM30.5391 11C31.0595 11 31.4855 11.1424 31.7521 11.3202C32.0258 11.5026 32.0391 11.6448 32.0391 11.6667H34.0391C34.0391 10.768 33.4927 10.0769 32.8615 9.6561C32.2233 9.23065 31.3993 9 30.5391 9V11ZM29.5391 5.83333V6.66667H31.5391V5.83333H29.5391ZM29.5391 13.3333L29.5391 14.1666L31.5391 14.1667L31.5391 13.3334L29.5391 13.3333ZM30.5391 12.3333C29.8204 12.3333 29.3227 12.068 29.1288 11.8446L27.6182 13.1554C28.2889 13.9283 29.4071 14.3333 30.5391 14.3333L30.5391 12.3333ZM32.0391 11.6667C32.0391 11.6885 32.0258 11.8307 31.7521 12.0131C31.4855 12.1909 31.0595 12.3333 30.5391 12.3333V14.3333C31.3993 14.3333 32.2234 14.1027 32.8615 13.6772C33.4927 13.2564 34.0391 12.5653 34.0391 11.6667H32.0391ZM29.5391 6.66667L29.5391 13.3333L31.5391 13.3333L31.5391 6.66666L29.5391 6.66667Z" fill="#9CA3AF"/>
</g>
<defs>
<clipPath id="clip0_290_24059">
<rect width="39.3846" height="40" fill="white" transform="translate(0.539062)"/>
</clipPath>
</defs>
</svg>
