<svg width="20" height="20" viewBox="0 0 20 20" fill="none" xmlns="http://www.w3.org/2000/svg">
<path fill-rule="evenodd" clip-rule="evenodd" d="M6.52459 12.7746C6.8907 12.4085 7.4843 12.4085 7.85041 12.7746L10 14.9242L12.1496 12.7746C12.5157 12.4085 13.1093 12.4085 13.4754 12.7746C13.8415 13.1407 13.8415 13.7343 13.4754 14.1004L10.6629 16.9129C10.2968 17.279 9.7032 17.279 9.33709 16.9129L6.52459 14.1004C6.15847 13.7343 6.15847 13.1407 6.52459 12.7746Z" fill="#9CA3AF"/>
<path fill-rule="evenodd" clip-rule="evenodd" d="M13.4754 7.22541C13.1093 7.59153 12.5157 7.59153 12.1496 7.22541L10 5.07583L7.85041 7.22541C7.4843 7.59153 6.8907 7.59153 6.52459 7.22541C6.15847 6.8593 6.15847 6.2657 6.52459 5.89959L9.33709 3.08709C9.7032 2.72097 10.2968 2.72097 10.6629 3.08709L13.4754 5.89959C13.8415 6.2657 13.8415 6.8593 13.4754 7.22541Z" fill="#9CA3AF"/>
</svg>
