<svg width="40" height="40" viewBox="0 0 40 40" fill="none" xmlns="http://www.w3.org/2000/svg">
<path d="M15 5V8.33333M25 5V8.33333M15 31.6667V35M25 31.6667V35M8.33333 15H5M8.33333 25H5M35 15H31.6667M35 25H31.6667M11.6667 31.6667H28.3333C30.1743 31.6667 31.6667 30.1743 31.6667 28.3333V11.6667C31.6667 9.82572 30.1743 8.33333 28.3333 8.33333H11.6667C9.82572 8.33333 8.33333 9.82572 8.33333 11.6667V28.3333C8.33333 30.1743 9.82572 31.6667 11.6667 31.6667ZM15 15H25V25H15V15Z" stroke="#9CA3AF" stroke-width="2" stroke-linecap="round" stroke-linejoin="round"/>
</svg>
