<svg xmlns="http://www.w3.org/2000/svg" width="16" height="16" viewBox="0 0 16 16" fill="none">
<path d="M9.2289 6.43692C9.4702 6.71501 9.89126 6.74484 10.1694 6.50353C10.4474 6.26223 10.4773 5.84118 10.236 5.56308L9.2289 6.43692ZM6.77111 9.56308C6.52981 9.28499 6.10875 9.25516 5.83066 9.49647C5.55257 9.73777 5.52274 10.1588 5.76404 10.4369L6.77111 9.56308ZM8.66667 4.66667C8.66667 4.29848 8.36819 4 8 4C7.63181 4 7.33333 4.29848 7.33333 4.66667H8.66667ZM7.33333 11.3333C7.33333 11.7015 7.6318 12 7.99999 12C8.36818 12 8.66666 11.7015 8.66667 11.3333L7.33333 11.3333ZM13.3333 8C13.3333 10.9455 10.9455 13.3333 8 13.3333V14.6667C11.6819 14.6667 14.6667 11.6819 14.6667 8H13.3333ZM8 13.3333C5.05448 13.3333 2.66667 10.9455 2.66667 8H1.33333C1.33333 11.6819 4.3181 14.6667 8 14.6667V13.3333ZM2.66667 8C2.66667 5.05448 5.05448 2.66667 8 2.66667V1.33333C4.3181 1.33333 1.33333 4.3181 1.33333 8H2.66667ZM8 2.66667C10.9455 2.66667 13.3333 5.05448 13.3333 8H14.6667C14.6667 4.3181 11.6819 1.33333 8 1.33333V2.66667ZM8 7.33333C7.56097 7.33333 7.19367 7.2135 6.95559 7.05478C6.71285 6.89295 6.66667 6.7426 6.66667 6.66667H5.33333C5.33333 7.32711 5.73487 7.84343 6.21599 8.16418C6.70176 8.48803 7.33446 8.66667 8 8.66667V7.33333ZM6.66667 6.66667C6.66667 6.59073 6.71285 6.44038 6.95559 6.27856C7.19367 6.11984 7.56097 6 8 6V4.66667C7.33446 4.66667 6.70176 4.84531 6.21599 5.16916C5.73487 5.4899 5.33333 6.00622 5.33333 6.66667H6.66667ZM8 6C8.60252 6 9.04202 6.22154 9.2289 6.43692L10.236 5.56308C9.73124 4.98139 8.87805 4.66667 8 4.66667V6ZM8 8.66667C8.43903 8.66667 8.80634 8.78651 9.04442 8.94523C9.28717 9.10706 9.33335 9.2574 9.33335 9.33333H10.6667C10.6667 8.67288 10.2651 8.15657 9.78402 7.83582C9.29824 7.51197 8.66554 7.33333 8 7.33333V8.66667ZM7.33333 4.66667V5.33333H8.66667V4.66667H7.33333ZM7.33335 10.6667L7.33333 11.3333L8.66667 11.3333L8.66668 10.6667L7.33335 10.6667ZM8.00002 10C7.3975 10 6.95799 9.77846 6.77111 9.56308L5.76404 10.4369C6.26878 11.0186 7.12198 11.3333 8.00001 11.3333L8.00002 10ZM9.33335 9.33333C9.33335 9.40927 9.28717 9.55962 9.04443 9.72144C8.80635 9.88016 8.43904 10 8.00001 10V11.3333C8.66556 11.3333 9.29825 11.1547 9.78403 10.8308C10.2651 10.5101 10.6667 9.99378 10.6667 9.33333H9.33335ZM7.33333 5.33334L7.33335 10.6667L8.66668 10.6667L8.66667 5.33333L7.33333 5.33334Z" fill="white"/>
</svg>