<svg width="394" height="133" viewBox="0 0 394 133" fill="none" xmlns="http://www.w3.org/2000/svg">
<path d="M0 88.8904C0 82.2562 5.37804 76.8782 12.0122 76.8782C18.6463 76.8782 24.0244 82.2562 24.0244 88.8904C24.0244 95.5245 18.6463 100.903 12.0122 100.903C5.37804 100.903 0 95.5245 0 88.8904Z" fill="#525ED1"/>
<path d="M0 52.8537C0 46.2196 5.37804 40.8416 12.0122 40.8416H36.0366C42.6707 40.8416 48.0488 46.2196 48.0488 52.8537C48.0488 59.4879 42.6707 64.8659 36.0366 64.8659H12.0122C5.37804 64.8659 0 59.4879 0 52.8537Z" fill="#525ED1"/>
<path d="M0 16.8171C0 10.183 5.37804 4.80493 12.0122 4.80493H60.061C66.6951 4.80493 72.0732 10.183 72.0732 16.8171C72.0732 23.4513 66.6951 28.8293 60.061 28.8293H12.0122C5.37804 28.8293 0 23.4513 0 16.8171Z" fill="#525ED1"/>
<path d="M394 35.4617L353.652 132.492H335.642L350.58 95.6347L325.171 35.4617H343.321L359.516 76.0889L375.85 35.4617H394Z" fill="white"/>
<path d="M324.553 0V16.3347H317.433C309.475 16.3347 306.822 22.338 306.822 30.2959V35.4616H320.644V49.1436H306.822V100.661H289.65V49.1436H277.224V35.4616H289.65V30.2959C289.65 11.169 299.004 0 317.433 0H324.553Z" fill="white"/>
<path d="M221.465 65.8973V100.661H204.432V35.4618H221.465V45.0951C225.234 37.9748 233.192 34.0657 240.871 34.0657C256.089 34.0657 265.164 43.5593 265.164 62.1278V100.661H248.131V65.1993C248.131 55.7056 243.105 50.6796 235.705 50.6796C227.887 50.6796 221.465 54.5887 221.465 65.8973Z" fill="white"/>
<path d="M185.195 35.4616V100.661H168.302V35.4616H185.195ZM165.789 10.1917C165.789 4.4676 170.815 0 176.818 0C182.822 0 187.569 4.4676 187.569 10.1917C187.569 16.1951 182.822 20.5231 176.818 20.5231C170.815 20.5231 165.789 16.1951 165.789 10.1917Z" fill="white"/>
<path d="M96.0977 100.661V4.46777H154.875V20.3836H113.968V45.3743H146.358V61.2901H113.968V100.661H96.0977Z" fill="white"/>
</svg>
