<svg viewBox="0 0 394 133" fill="none" xmlns="http://www.w3.org/2000/svg">
<g clip-path="url(#clip0_1202_3)">
<path d="M1 88.8901C1 82.8082 5.93032 77.8779 12.0122 77.8779C18.094 77.8779 23.0244 82.8082 23.0244 88.8901C23.0244 94.972 18.094 99.9027 12.0122 99.9027C5.93037 99.9027 1 94.972 1 88.8901Z" fill="white" stroke="white" stroke-width="2"/>
<path d="M1 52.8539C1 46.7721 5.93032 41.8418 12.0122 41.8418H36.0366C42.1184 41.8418 47.0488 46.7721 47.0488 52.8539C47.0488 58.9358 42.1184 63.8661 36.0366 63.8661H12.0122C5.93032 63.8661 1 58.9358 1 52.8539Z" fill="white" stroke="white" stroke-width="2"/>
<path d="M1 16.8169C1 10.735 5.93033 5.80469 12.0122 5.80469H60.061C66.1428 5.80469 71.0732 10.735 71.0732 16.8169C71.0732 22.8988 66.1428 27.8291 60.061 27.8291H12.0122C5.93032 27.8291 1 22.8988 1 16.8169Z" fill="white" stroke="white" stroke-width="2"/>
<path d="M394 35.4619L353.652 132.492H335.642L350.58 95.6349L325.171 35.4619H343.321L359.516 76.0891L375.85 35.4619H394Z" fill="white"/>
<path d="M324.553 0V16.3347H317.433C309.475 16.3347 306.822 22.338 306.822 30.2959V35.4616H320.644V49.1436H306.822V100.661H289.65V49.1436H277.224V35.4616H289.65V30.2959C289.65 11.169 299.004 0 317.433 0H324.553Z" fill="white"/>
<path d="M221.465 65.897V100.661H204.432V35.4615H221.465V45.0948C225.234 37.9745 233.192 34.0654 240.871 34.0654C256.089 34.0654 265.164 43.559 265.164 62.1275V100.661H248.131V65.199C248.131 55.7053 243.105 50.6793 235.705 50.6793C227.887 50.6793 221.465 54.5884 221.465 65.897Z" fill="white"/>
<path d="M185.195 35.4616V100.661H168.302V35.4616H185.195ZM165.789 10.1917C165.789 4.4676 170.815 0 176.818 0C182.822 0 187.569 4.4676 187.569 10.1917C187.569 16.1951 182.822 20.5231 176.818 20.5231C170.815 20.5231 165.789 16.1951 165.789 10.1917Z" fill="white"/>
<path d="M96.0977 100.661V4.46777H154.875V20.3836H113.968V45.3743H146.358V61.2901H113.968V100.661H96.0977Z" fill="white"/>
</g>
<defs>
<clipPath id="clip0_1202_3">
<rect width="394" height="133" fill="white"/>
</clipPath>
</defs>
</svg>
