<svg width="16" height="16" viewBox="0 0 16 16" fill="none" xmlns="http://www.w3.org/2000/svg">
<g clip-path="url(#clip0_2209_8954)">
<path d="M6.8086 2.53636L6.07977 2.35943L6.07977 2.35943L6.8086 2.53636ZM9.19135 2.53636L8.46252 2.7133L8.46252 2.7133L9.19135 2.53636ZM4.97931 3.29408L4.58906 3.93455L4.97931 3.29408ZM3.29445 4.97894L2.65397 5.36919H2.65397L3.29445 4.97894ZM2.53673 6.80823L2.35979 6.0794H2.35979L2.53673 6.80823ZM2.53673 9.19099L2.35979 9.91982H2.35979L2.53673 9.19099ZM3.29445 11.0203L2.65397 10.63H2.65397L3.29445 11.0203ZM4.97931 12.7051L5.36956 13.3456L5.36956 13.3456L4.97931 12.7051ZM6.8086 13.4629L6.07977 13.6398H6.07977L6.8086 13.4629ZM9.19135 13.4629L8.46252 13.2859H8.46252L9.19135 13.4629ZM11.0206 12.7051L11.4109 12.0647V12.0647L11.0206 12.7051ZM12.7055 11.0203L12.065 11.4105H12.065L12.7055 11.0203ZM13.4632 9.19099L13.6402 9.91982L13.4632 9.19099ZM13.4632 6.80823L13.6402 6.0794L13.4632 6.80823ZM12.7055 4.97894L13.346 5.36919L13.346 5.36919L12.7055 4.97894ZM11.0206 3.29408L11.4109 3.93455V3.93455L11.0206 3.29408ZM7.53743 2.7133C7.65515 2.22838 8.3448 2.22838 8.46252 2.7133L9.92018 2.35943C9.43147 0.346338 6.56848 0.346336 6.07977 2.35943L7.53743 2.7133ZM4.58906 3.93455C5.73184 4.63086 7.22173 4.01373 7.53743 2.7133L6.07977 2.35943C6.00372 2.67268 5.64483 2.82133 5.36955 2.65361L4.58906 3.93455ZM3.93492 4.58869C3.67527 4.16256 4.16293 3.67491 4.58906 3.93455L5.36955 2.65361C3.60051 1.57571 1.57608 3.60015 2.65397 5.36919L3.93492 4.58869ZM2.71367 7.53706C4.0141 7.22136 4.63123 5.73147 3.93492 4.58869L2.65397 5.36919C2.8217 5.64446 2.67304 6.00335 2.35979 6.0794L2.71367 7.53706ZM2.71367 8.46216C2.22874 8.34443 2.22875 7.65479 2.71367 7.53706L2.35979 6.0794C0.346701 6.56812 0.346706 9.4311 2.35979 9.91982L2.71367 8.46216ZM3.93492 11.4105C4.63123 10.2677 4.0141 8.77786 2.71367 8.46216L2.35979 9.91982C2.67304 9.99586 2.8217 10.3548 2.65397 10.63L3.93492 11.4105ZM4.58906 12.0647C4.16293 12.3243 3.67527 11.8367 3.93492 11.4105L2.65397 10.63C1.57608 12.3991 3.60051 14.4235 5.36956 13.3456L4.58906 12.0647ZM7.53743 13.2859C7.22173 11.9855 5.73184 11.3684 4.58906 12.0647L5.36956 13.3456C5.64483 13.1779 6.00372 13.3265 6.07977 13.6398L7.53743 13.2859ZM8.46252 13.2859C8.3448 13.7708 7.65515 13.7708 7.53743 13.2859L6.07977 13.6398C6.56848 15.6529 9.43147 15.6529 9.92018 13.6398L8.46252 13.2859ZM11.4109 12.0647C10.2681 11.3684 8.77823 11.9855 8.46252 13.2859L9.92018 13.6398C9.99623 13.3265 10.3551 13.1779 10.6304 13.3456L11.4109 12.0647ZM12.065 11.4105C12.3247 11.8367 11.837 12.3243 11.4109 12.0647L10.6304 13.3456C12.3994 14.4235 14.4239 12.3991 13.346 10.63L12.065 11.4105ZM13.2863 8.46216C11.9859 8.77786 11.3687 10.2677 12.065 11.4105L13.346 10.63C13.1783 10.3548 13.3269 9.99586 13.6402 9.91982L13.2863 8.46216ZM13.2863 7.53706C13.7712 7.65479 13.7712 8.34443 13.2863 8.46216L13.6402 9.91982C15.6532 9.4311 15.6532 6.56812 13.6402 6.0794L13.2863 7.53706ZM12.065 4.58869C11.3687 5.73147 11.9859 7.22136 13.2863 7.53706L13.6402 6.0794C13.3269 6.00335 13.1783 5.64446 13.346 5.36919L12.065 4.58869ZM11.4109 3.93455C11.837 3.67491 12.3247 4.16256 12.065 4.58869L13.346 5.36919C14.4239 3.60015 12.3994 1.57571 10.6304 2.65361L11.4109 3.93455ZM8.46252 2.7133C8.77823 4.01373 10.2681 4.63086 11.4109 3.93455L10.6304 2.65361C10.3551 2.82134 9.99623 2.67268 9.92018 2.35943L8.46252 2.7133ZM9.64997 7.99961C9.64997 8.91088 8.91125 9.64961 7.99998 9.64961V11.1496C9.73967 11.1496 11.15 9.73931 11.15 7.99961H9.64997ZM7.99998 6.34961C8.91125 6.34961 9.64997 7.08834 9.64997 7.99961H11.15C11.15 6.25991 9.73967 4.84961 7.99998 4.84961V6.34961ZM6.34998 7.99961C6.34998 7.08834 7.08871 6.34961 7.99998 6.34961V4.84961C6.26028 4.84961 4.84998 6.25991 4.84998 7.99961H6.34998ZM7.99998 9.64961C7.08871 9.64961 6.34998 8.91088 6.34998 7.99961H4.84998C4.84998 9.73931 6.26028 11.1496 7.99998 11.1496V9.64961Z" fill="#D1D5DB"/>
</g>
<defs>
<clipPath id="clip0_2209_8954">
<rect width="16" height="16" fill="white"/>
</clipPath>
</defs>
</svg>
