<svg viewBox="0 0 24 24" fill="none" xmlns="http://www.w3.org/2000/svg">
<path d="M20.4057 5.28613L20.8723 4.4579C21.0452 4.15138 21.0422 3.78823 20.8648 3.4847C20.6881 3.1812 20.3718 3 20.0207 3H15.8372C15.5367 3 15.2936 3.24311 15.2936 3.54359V8.88368H14.5862C13.6205 8.88368 12.8346 9.66962 12.8346 10.6353V12.0365C12.6292 11.952 12.4057 11.9036 12.1702 11.9036H9.66819C8.70256 11.9036 7.91661 12.6896 7.91661 13.6552V15.0557C7.71125 14.9712 7.48776 14.9229 7.25222 14.9229L4.75158 14.9236C3.78595 14.9236 3 15.7103 3 16.6752V18.4849C3 19.4506 3.78595 20.2365 4.75158 20.2365H17.0897C18.0553 20.2365 18.8413 19.4498 18.8413 18.4849L18.8405 10.6353C18.8405 9.66968 18.0546 8.88374 17.0889 8.88374H16.3815V7.57155H20.0213C20.3731 7.57155 20.688 7.39035 20.8654 7.08685C21.0421 6.78334 21.0451 6.42019 20.8729 6.11365L20.4057 5.28613ZM7.91823 19.1494H4.75175C4.38558 19.1494 4.08736 18.8519 4.08736 18.485V16.6753C4.08736 16.3091 4.38558 16.0109 4.75175 16.0109H7.25374C7.6199 16.0109 7.91813 16.3084 7.91813 16.6753L7.91823 19.1494ZM12.8354 19.1494H9.00464V13.6553C9.00464 13.2891 9.30287 12.9909 9.66904 12.9909H12.171C12.5372 12.9909 12.8354 13.2884 12.8354 13.6553V19.1494ZM17.7526 10.6353V18.4857C17.7526 18.8518 17.4544 19.1501 17.0882 19.1501H13.9217V10.636C13.9217 10.2698 14.22 9.97158 14.5861 9.97158H17.0881C17.455 9.97083 17.7526 10.2691 17.7526 10.6353ZM16.3808 6.48426V4.08723H19.8325L19.3078 5.01889C19.215 5.18423 19.215 5.38656 19.3078 5.55191L19.8333 6.48432L16.3808 6.48426Z" fill="current" stroke="current" stroke-width="0.6"/>
</svg>
