<svg width="40" height="40" viewBox="0 0 40 40" fill="none" xmlns="http://www.w3.org/2000/svg">
<path d="M11.668 19.1667V23.3333M11.668 19.1667V9.16667C11.668 7.78595 12.7873 6.66667 14.168 6.66667C15.5487 6.66667 16.668 7.78595 16.668 9.16667M11.668 19.1667C11.668 17.786 10.5487 16.6667 9.16797 16.6667C7.78726 16.6667 6.66797 17.786 6.66797 19.1667V22.5C6.66797 29.4036 12.2644 35 19.168 35C26.0715 35 31.668 29.4036 31.668 22.5V14.1667C31.668 12.786 30.5487 11.6667 29.168 11.6667C27.7873 11.6667 26.668 12.786 26.668 14.1667M16.668 9.16667V18.3333M16.668 9.16667V7.5C16.668 6.11929 17.7873 5 19.168 5C20.5487 5 21.668 6.11929 21.668 7.5V9.16667M21.668 9.16667V18.3333M21.668 9.16667C21.668 7.78595 22.7873 6.66667 24.168 6.66667C25.5487 6.66667 26.668 7.78596 26.668 9.16667V14.1667M26.668 14.1667V18.3333" stroke="#9CA3AF" stroke-width="2" stroke-linecap="round" stroke-linejoin="round"/>
</svg>
