<svg width="100" height="25" viewBox="0 0 100 25" fill="none" xmlns="http://www.w3.org/2000/svg">
<g opacity="0.7">
<path d="M0.5 25V23.3333H20.3034V25H0.5ZM0.5 21.6667V20H20.3034V21.6667H0.5ZM0.5 5V3.33333H20.3034V5H0.5ZM0.5 1.66667V0H20.3034V1.66667H0.5ZM7.10115 11.6667V10H13.7023V11.6667H7.10115ZM7.10115 18.3333V16.6667H13.7023V18.3333H7.10115ZM7.10115 15V13.3333H13.7023V15H7.10115ZM7.10115 8.33333V6.66667H13.7023V8.33333H7.10115Z" fill="white"/>
<path d="M21.9523 5V3.33333H48.3569V5H21.9523ZM25.2529 1.66667V0H45.0563V1.66667H25.2529ZM41.7557 8.33333V6.66667H48.3569V8.33333H41.7557ZM31.854 21.6667V20H38.4552V21.6667H31.854ZM21.9523 18.3333V16.6667H28.5534V18.3333H21.9523ZM21.9523 21.6667V20H28.5534V21.6667H21.9523ZM21.9523 25V23.3333H28.5534V25H21.9523ZM31.854 15V13.3333H38.4552V15H31.854ZM21.9523 11.6667V10H28.5534V11.6667H21.9523ZM31.854 11.6667V10H38.4552V11.6667H31.854ZM21.9523 8.33333V6.66667H28.5534V8.33333H21.9523ZM31.854 8.33333V6.66667H38.4552V8.33333H31.854ZM31.854 18.3333V16.6667H38.4552V18.3333H31.854ZM21.9523 15V13.3333H28.5534V15H21.9523ZM41.7557 25V23.3333H48.3569V25H41.7557ZM41.7557 21.6667V20H48.3569V21.6667H41.7557ZM41.7557 18.3333V16.6667H48.3569V18.3333H41.7557ZM41.7557 15V13.3333H48.3569V15H41.7557ZM41.7557 11.6667V10H48.3569V11.6667H41.7557ZM31.854 25V23.3333H38.4552V25H31.854Z" fill="white"/>
<path d="M49.9943 15V13.3333H69.7977V15H49.9943ZM49.9943 11.6667V10H69.7977V11.6667H49.9943ZM49.9943 5V3.33333H69.7977V5H49.9943ZM53.2948 1.66667V0H66.4971V1.66667H53.2948ZM63.1966 18.3333V16.6667H69.7977V18.3333H63.1966ZM49.9943 25V23.3333H56.5954V25H49.9943ZM49.9943 21.6667V20H56.5954V21.6667H49.9943ZM63.1966 21.6667V20H69.7977V21.6667H63.1966ZM49.9943 8.33333V6.66667H56.5954V8.33333H49.9943ZM49.9943 18.3333V16.6667H56.5954V18.3333H49.9943ZM63.1966 8.33333V6.66667H69.7977V8.33333H63.1966ZM63.1966 25V23.3333H69.7977V25H63.1966Z" fill="white"/>
<path d="M71.4466 21.6667V20H91.25V21.6667H71.4466ZM74.7471 25V23.3333H91.25V25H74.7471ZM71.4466 18.3333V16.6667H78.0477V18.3333H71.4466ZM71.4466 15V13.3333H78.0477V15H71.4466ZM71.4466 11.6667V10H78.0477V11.6667H71.4466ZM71.4466 8.33333V6.66667H78.0477V8.33333H71.4466ZM71.4466 5V3.33333H78.0477V5H71.4466ZM71.4466 1.66667V0H78.0477V1.66667H71.4466Z" fill="white"/>
<path d="M92.8989 25V23.3333H99.5V25H92.8989ZM92.8989 21.6667V20H99.5V21.6667H92.8989ZM92.8989 18.3333V16.6667H99.5V18.3333H92.8989ZM92.8989 15V13.3333H99.5V15H92.8989ZM92.8989 11.6667V10H99.5V11.6667H92.8989ZM92.8989 8.33333V6.66667H99.5V8.33333H92.8989ZM92.8989 5V3.33333H99.5V5H92.8989ZM92.8989 1.66667V0H99.5V1.66667H92.8989Z" fill="white"/>
</g>
</svg>
