<svg xmlns="http://www.w3.org/2000/svg" width="16" height="16" viewBox="0 0 16 16" fill="none">
<mask id="path-1-outside-1_1_1491" maskUnits="userSpaceOnUse" x="1" y="0" width="14" height="16" fill="black">
<rect fill="white" x="1" width="14" height="16"/>
<path d="M10.3127 4.68211C10.879 5.21614 11.309 5.85676 11.5993 6.53925C11.8719 7.1787 12.0226 7.85545 12.0493 8.51703L12.5193 8.02492C12.6862 7.85022 12.9054 7.76285 13.1245 7.76285C13.3432 7.76285 13.5629 7.85021 13.7297 8.02492L13.7475 8.04472C13.8944 8.1973 13.9778 8.39183 13.9962 8.59332C14.0145 8.79366 13.9667 9.00097 13.851 9.18035L11.7806 12.3788C11.6171 12.631 11.4091 12.8278 11.1693 12.9612C10.9285 13.0957 10.6564 13.1656 10.3655 13.1656H6.35935C6.24532 13.1656 6.1413 13.1848 6.0473 13.2226C5.95218 13.2617 5.86317 13.3217 5.7803 13.4009L5.65069 13.5255L5.75916 13.6909C5.8476 13.8266 5.81422 14.0118 5.68462 14.1044L4.51038 14.9482C4.38077 15.0408 4.20389 15.0059 4.11544 14.8702L2.04946 11.7207C1.96102 11.585 1.99439 11.3998 2.124 11.3072L3.29768 10.4628C3.42729 10.3702 3.60417 10.4051 3.69261 10.5408L3.78384 10.68L4.49861 9.88039C4.27334 8.94918 4.33396 7.89976 4.67438 6.91379C4.95807 6.09205 5.43701 5.31234 6.10621 4.68095C6.08563 4.6629 6.06561 4.64426 6.0467 4.62446C5.89707 4.4678 5.80417 4.25115 5.80417 4.01296C5.80417 3.77477 5.89706 3.55813 6.0467 3.40146C6.19632 3.24481 6.40325 3.14754 6.63076 3.14754H6.68027C6.63632 2.94896 6.57013 2.75852 6.48279 2.58031C6.35764 2.32407 6.18742 2.08936 5.97994 1.88961C5.8648 1.77838 5.85702 1.59027 5.96326 1.46913C6.0378 1.38469 6.14848 1.35557 6.24806 1.38352C6.55511 1.45283 6.8705 1.45807 7.17699 1.40158C7.48793 1.3445 7.78776 1.22454 8.05809 1.04574C8.15377 0.982263 8.27225 0.986922 8.36181 1.04691C8.63158 1.22512 8.93085 1.34508 9.24123 1.40158C9.55217 1.45865 9.87313 1.45224 10.1846 1.38003C10.3376 1.3445 10.4889 1.44584 10.5228 1.60599C10.5456 1.71315 10.5095 1.81914 10.4377 1.88844C10.2302 2.0882 10.0606 2.3229 9.93543 2.57914C9.8481 2.75735 9.7819 2.94779 9.73796 3.14637H9.78691C10.0144 3.14637 10.2219 3.24363 10.371 3.40029C10.5206 3.55695 10.6135 3.7736 10.6135 4.01179C10.6135 4.24998 10.5206 4.46662 10.371 4.62329C10.3521 4.64309 10.332 4.66231 10.3115 4.67978L10.3127 4.68211ZM7.26169 3.14874H9.15787C9.2096 2.85697 9.3025 2.5751 9.43153 2.31129C9.4777 2.21694 9.52832 2.12493 9.58395 2.03582C9.43598 2.03233 9.28913 2.01719 9.14452 1.9904C8.81967 1.93099 8.50372 1.81452 8.21002 1.64446C7.91632 1.81452 7.60037 1.93098 7.27552 1.9904C7.13089 2.01719 6.98405 2.03233 6.83608 2.03582C6.89115 2.12492 6.94177 2.21694 6.9885 2.31129C7.11755 2.5751 7.21044 2.85697 7.26217 3.14874H7.26169ZM3.38509 11.1226L2.67976 11.6298L4.42416 14.2889L5.13004 13.7817C4.54876 12.8959 3.96692 12.0083 3.38564 11.1226H3.38509ZM5.32589 13.0304L5.39542 12.9634C5.53115 12.833 5.67966 12.7346 5.84097 12.6688C6.00507 12.6024 6.1775 12.5692 6.35941 12.5692H10.3656C10.5619 12.5692 10.7438 12.5226 10.9024 12.4346C11.0626 12.3467 11.2016 12.2145 11.3112 12.045L13.3816 8.84661C13.4205 8.78604 13.4367 8.71616 13.4305 8.64859C13.4244 8.58278 13.3955 8.51756 13.346 8.46514L13.3271 8.44534C13.272 8.38768 13.198 8.35798 13.1246 8.35798C13.0512 8.35798 12.9777 8.3871 12.9221 8.44534L10.6921 10.7801C10.5976 10.8779 10.4902 10.9489 10.3729 10.9926C10.2561 11.0363 10.1298 11.0514 9.99906 11.0369L7.91089 10.8098C7.85971 10.8039 7.80965 10.7841 7.76626 10.7492C7.64222 10.649 7.61941 10.4621 7.71508 10.3322L8.74637 8.93563C8.78642 8.88147 8.80755 8.81916 8.80867 8.75801C8.80978 8.69686 8.79142 8.63338 8.7536 8.57747L8.67684 8.46391C8.63567 8.40334 8.57782 8.36258 8.51496 8.34569C8.45266 8.3288 8.38369 8.33521 8.3186 8.36782L5.40819 9.82317C5.35868 9.84763 5.31363 9.87558 5.27135 9.90819C5.23019 9.93964 5.1907 9.97691 5.15232 10.02L4.1138 11.1807L5.32645 13.0296L5.32589 13.0304ZM11.4681 9.12568C11.5354 8.36043 11.4047 7.54162 11.0809 6.78152C10.7755 6.06461 10.2977 5.39897 9.65193 4.8794H6.76715C6.02178 5.47866 5.50003 6.273 5.20858 7.11697C4.94825 7.87172 4.8715 8.665 4.98275 9.39404C5.03782 9.3556 5.09734 9.32124 5.16298 9.28804L8.0734 7.83158C8.26085 7.73665 8.46723 7.72035 8.6569 7.77159C8.84603 7.82284 9.01847 7.94281 9.13918 8.12044L9.21594 8.234C9.32608 8.39648 9.37892 8.58401 9.37558 8.77095C9.37225 8.9579 9.31161 9.14367 9.19591 9.30032L8.47612 10.2741L10.0565 10.4459C10.1021 10.4505 10.1455 10.4459 10.1839 10.4319C10.2217 10.4179 10.2573 10.3934 10.2896 10.3597L11.4677 9.12561L11.4681 9.12568ZM9.78763 3.74447H6.63146C6.56081 3.74447 6.49684 3.77475 6.45012 3.82367C6.4034 3.87259 6.37447 3.94015 6.37447 4.01352C6.37447 4.08748 6.4034 4.15446 6.45012 4.20337C6.49685 4.25229 6.56137 4.28258 6.63146 4.28258H9.78763C9.85827 4.28258 9.9228 4.25229 9.96952 4.20337C10.0162 4.15446 10.0452 4.0869 10.0452 4.01352C10.0452 3.93956 10.0162 3.87259 9.96952 3.82367C9.9228 3.77476 9.85827 3.74447 9.78763 3.74447Z"/>
</mask>
<path d="M10.3127 4.68211C10.879 5.21614 11.309 5.85676 11.5993 6.53925C11.8719 7.1787 12.0226 7.85545 12.0493 8.51703L12.5193 8.02492C12.6862 7.85022 12.9054 7.76285 13.1245 7.76285C13.3432 7.76285 13.5629 7.85021 13.7297 8.02492L13.7475 8.04472C13.8944 8.1973 13.9778 8.39183 13.9962 8.59332C14.0145 8.79366 13.9667 9.00097 13.851 9.18035L11.7806 12.3788C11.6171 12.631 11.4091 12.8278 11.1693 12.9612C10.9285 13.0957 10.6564 13.1656 10.3655 13.1656H6.35935C6.24532 13.1656 6.1413 13.1848 6.0473 13.2226C5.95218 13.2617 5.86317 13.3217 5.7803 13.4009L5.65069 13.5255L5.75916 13.6909C5.8476 13.8266 5.81422 14.0118 5.68462 14.1044L4.51038 14.9482C4.38077 15.0408 4.20389 15.0059 4.11544 14.8702L2.04946 11.7207C1.96102 11.585 1.99439 11.3998 2.124 11.3072L3.29768 10.4628C3.42729 10.3702 3.60417 10.4051 3.69261 10.5408L3.78384 10.68L4.49861 9.88039C4.27334 8.94918 4.33396 7.89976 4.67438 6.91379C4.95807 6.09205 5.43701 5.31234 6.10621 4.68095C6.08563 4.6629 6.06561 4.64426 6.0467 4.62446C5.89707 4.4678 5.80417 4.25115 5.80417 4.01296C5.80417 3.77477 5.89706 3.55813 6.0467 3.40146C6.19632 3.24481 6.40325 3.14754 6.63076 3.14754H6.68027C6.63632 2.94896 6.57013 2.75852 6.48279 2.58031C6.35764 2.32407 6.18742 2.08936 5.97994 1.88961C5.8648 1.77838 5.85702 1.59027 5.96326 1.46913C6.0378 1.38469 6.14848 1.35557 6.24806 1.38352C6.55511 1.45283 6.8705 1.45807 7.17699 1.40158C7.48793 1.3445 7.78776 1.22454 8.05809 1.04574C8.15377 0.982263 8.27225 0.986922 8.36181 1.04691C8.63158 1.22512 8.93085 1.34508 9.24123 1.40158C9.55217 1.45865 9.87313 1.45224 10.1846 1.38003C10.3376 1.3445 10.4889 1.44584 10.5228 1.60599C10.5456 1.71315 10.5095 1.81914 10.4377 1.88844C10.2302 2.0882 10.0606 2.3229 9.93543 2.57914C9.8481 2.75735 9.7819 2.94779 9.73796 3.14637H9.78691C10.0144 3.14637 10.2219 3.24363 10.371 3.40029C10.5206 3.55695 10.6135 3.7736 10.6135 4.01179C10.6135 4.24998 10.5206 4.46662 10.371 4.62329C10.3521 4.64309 10.332 4.66231 10.3115 4.67978L10.3127 4.68211ZM7.26169 3.14874H9.15787C9.2096 2.85697 9.3025 2.5751 9.43153 2.31129C9.4777 2.21694 9.52832 2.12493 9.58395 2.03582C9.43598 2.03233 9.28913 2.01719 9.14452 1.9904C8.81967 1.93099 8.50372 1.81452 8.21002 1.64446C7.91632 1.81452 7.60037 1.93098 7.27552 1.9904C7.13089 2.01719 6.98405 2.03233 6.83608 2.03582C6.89115 2.12492 6.94177 2.21694 6.9885 2.31129C7.11755 2.5751 7.21044 2.85697 7.26217 3.14874H7.26169ZM3.38509 11.1226L2.67976 11.6298L4.42416 14.2889L5.13004 13.7817C4.54876 12.8959 3.96692 12.0083 3.38564 11.1226H3.38509ZM5.32589 13.0304L5.39542 12.9634C5.53115 12.833 5.67966 12.7346 5.84097 12.6688C6.00507 12.6024 6.1775 12.5692 6.35941 12.5692H10.3656C10.5619 12.5692 10.7438 12.5226 10.9024 12.4346C11.0626 12.3467 11.2016 12.2145 11.3112 12.045L13.3816 8.84661C13.4205 8.78604 13.4367 8.71616 13.4305 8.64859C13.4244 8.58278 13.3955 8.51756 13.346 8.46514L13.3271 8.44534C13.272 8.38768 13.198 8.35798 13.1246 8.35798C13.0512 8.35798 12.9777 8.3871 12.9221 8.44534L10.6921 10.7801C10.5976 10.8779 10.4902 10.9489 10.3729 10.9926C10.2561 11.0363 10.1298 11.0514 9.99906 11.0369L7.91089 10.8098C7.85971 10.8039 7.80965 10.7841 7.76626 10.7492C7.64222 10.649 7.61941 10.4621 7.71508 10.3322L8.74637 8.93563C8.78642 8.88147 8.80755 8.81916 8.80867 8.75801C8.80978 8.69686 8.79142 8.63338 8.7536 8.57747L8.67684 8.46391C8.63567 8.40334 8.57782 8.36258 8.51496 8.34569C8.45266 8.3288 8.38369 8.33521 8.3186 8.36782L5.40819 9.82317C5.35868 9.84763 5.31363 9.87558 5.27135 9.90819C5.23019 9.93964 5.1907 9.97691 5.15232 10.02L4.1138 11.1807L5.32645 13.0296L5.32589 13.0304ZM11.4681 9.12568C11.5354 8.36043 11.4047 7.54162 11.0809 6.78152C10.7755 6.06461 10.2977 5.39897 9.65193 4.8794H6.76715C6.02178 5.47866 5.50003 6.273 5.20858 7.11697C4.94825 7.87172 4.8715 8.665 4.98275 9.39404C5.03782 9.3556 5.09734 9.32124 5.16298 9.28804L8.0734 7.83158C8.26085 7.73665 8.46723 7.72035 8.6569 7.77159C8.84603 7.82284 9.01847 7.94281 9.13918 8.12044L9.21594 8.234C9.32608 8.39648 9.37892 8.58401 9.37558 8.77095C9.37225 8.9579 9.31161 9.14367 9.19591 9.30032L8.47612 10.2741L10.0565 10.4459C10.1021 10.4505 10.1455 10.4459 10.1839 10.4319C10.2217 10.4179 10.2573 10.3934 10.2896 10.3597L11.4677 9.12561L11.4681 9.12568ZM9.78763 3.74447H6.63146C6.56081 3.74447 6.49684 3.77475 6.45012 3.82367C6.4034 3.87259 6.37447 3.94015 6.37447 4.01352C6.37447 4.08748 6.4034 4.15446 6.45012 4.20337C6.49685 4.25229 6.56137 4.28258 6.63146 4.28258H9.78763C9.85827 4.28258 9.9228 4.25229 9.96952 4.20337C10.0162 4.15446 10.0452 4.0869 10.0452 4.01352C10.0452 3.93956 10.0162 3.87259 9.96952 3.82367C9.9228 3.77476 9.85827 3.74447 9.78763 3.74447Z" fill="white"/>
<path d="M10.3127 4.68211C10.879 5.21614 11.309 5.85676 11.5993 6.53925C11.8719 7.1787 12.0226 7.85545 12.0493 8.51703L12.5193 8.02492C12.6862 7.85022 12.9054 7.76285 13.1245 7.76285C13.3432 7.76285 13.5629 7.85021 13.7297 8.02492L13.7475 8.04472C13.8944 8.1973 13.9778 8.39183 13.9962 8.59332C14.0145 8.79366 13.9667 9.00097 13.851 9.18035L11.7806 12.3788C11.6171 12.631 11.4091 12.8278 11.1693 12.9612C10.9285 13.0957 10.6564 13.1656 10.3655 13.1656H6.35935C6.24532 13.1656 6.1413 13.1848 6.0473 13.2226C5.95218 13.2617 5.86317 13.3217 5.7803 13.4009L5.65069 13.5255L5.75916 13.6909C5.8476 13.8266 5.81422 14.0118 5.68462 14.1044L4.51038 14.9482C4.38077 15.0408 4.20389 15.0059 4.11544 14.8702L2.04946 11.7207C1.96102 11.585 1.99439 11.3998 2.124 11.3072L3.29768 10.4628C3.42729 10.3702 3.60417 10.4051 3.69261 10.5408L3.78384 10.68L4.49861 9.88039C4.27334 8.94918 4.33396 7.89976 4.67438 6.91379C4.95807 6.09205 5.43701 5.31234 6.10621 4.68095C6.08563 4.6629 6.06561 4.64426 6.0467 4.62446C5.89707 4.4678 5.80417 4.25115 5.80417 4.01296C5.80417 3.77477 5.89706 3.55813 6.0467 3.40146C6.19632 3.24481 6.40325 3.14754 6.63076 3.14754H6.68027C6.63632 2.94896 6.57013 2.75852 6.48279 2.58031C6.35764 2.32407 6.18742 2.08936 5.97994 1.88961C5.8648 1.77838 5.85702 1.59027 5.96326 1.46913C6.0378 1.38469 6.14848 1.35557 6.24806 1.38352C6.55511 1.45283 6.8705 1.45807 7.17699 1.40158C7.48793 1.3445 7.78776 1.22454 8.05809 1.04574C8.15377 0.982263 8.27225 0.986922 8.36181 1.04691C8.63158 1.22512 8.93085 1.34508 9.24123 1.40158C9.55217 1.45865 9.87313 1.45224 10.1846 1.38003C10.3376 1.3445 10.4889 1.44584 10.5228 1.60599C10.5456 1.71315 10.5095 1.81914 10.4377 1.88844C10.2302 2.0882 10.0606 2.3229 9.93543 2.57914C9.8481 2.75735 9.7819 2.94779 9.73796 3.14637H9.78691C10.0144 3.14637 10.2219 3.24363 10.371 3.40029C10.5206 3.55695 10.6135 3.7736 10.6135 4.01179C10.6135 4.24998 10.5206 4.46662 10.371 4.62329C10.3521 4.64309 10.332 4.66231 10.3115 4.67978L10.3127 4.68211ZM7.26169 3.14874H9.15787C9.2096 2.85697 9.3025 2.5751 9.43153 2.31129C9.4777 2.21694 9.52832 2.12493 9.58395 2.03582C9.43598 2.03233 9.28913 2.01719 9.14452 1.9904C8.81967 1.93099 8.50372 1.81452 8.21002 1.64446C7.91632 1.81452 7.60037 1.93098 7.27552 1.9904C7.13089 2.01719 6.98405 2.03233 6.83608 2.03582C6.89115 2.12492 6.94177 2.21694 6.9885 2.31129C7.11755 2.5751 7.21044 2.85697 7.26217 3.14874H7.26169ZM3.38509 11.1226L2.67976 11.6298L4.42416 14.2889L5.13004 13.7817C4.54876 12.8959 3.96692 12.0083 3.38564 11.1226H3.38509ZM5.32589 13.0304L5.39542 12.9634C5.53115 12.833 5.67966 12.7346 5.84097 12.6688C6.00507 12.6024 6.1775 12.5692 6.35941 12.5692H10.3656C10.5619 12.5692 10.7438 12.5226 10.9024 12.4346C11.0626 12.3467 11.2016 12.2145 11.3112 12.045L13.3816 8.84661C13.4205 8.78604 13.4367 8.71616 13.4305 8.64859C13.4244 8.58278 13.3955 8.51756 13.346 8.46514L13.3271 8.44534C13.272 8.38768 13.198 8.35798 13.1246 8.35798C13.0512 8.35798 12.9777 8.3871 12.9221 8.44534L10.6921 10.7801C10.5976 10.8779 10.4902 10.9489 10.3729 10.9926C10.2561 11.0363 10.1298 11.0514 9.99906 11.0369L7.91089 10.8098C7.85971 10.8039 7.80965 10.7841 7.76626 10.7492C7.64222 10.649 7.61941 10.4621 7.71508 10.3322L8.74637 8.93563C8.78642 8.88147 8.80755 8.81916 8.80867 8.75801C8.80978 8.69686 8.79142 8.63338 8.7536 8.57747L8.67684 8.46391C8.63567 8.40334 8.57782 8.36258 8.51496 8.34569C8.45266 8.3288 8.38369 8.33521 8.3186 8.36782L5.40819 9.82317C5.35868 9.84763 5.31363 9.87558 5.27135 9.90819C5.23019 9.93964 5.1907 9.97691 5.15232 10.02L4.1138 11.1807L5.32645 13.0296L5.32589 13.0304ZM11.4681 9.12568C11.5354 8.36043 11.4047 7.54162 11.0809 6.78152C10.7755 6.06461 10.2977 5.39897 9.65193 4.8794H6.76715C6.02178 5.47866 5.50003 6.273 5.20858 7.11697C4.94825 7.87172 4.8715 8.665 4.98275 9.39404C5.03782 9.3556 5.09734 9.32124 5.16298 9.28804L8.0734 7.83158C8.26085 7.73665 8.46723 7.72035 8.6569 7.77159C8.84603 7.82284 9.01847 7.94281 9.13918 8.12044L9.21594 8.234C9.32608 8.39648 9.37892 8.58401 9.37558 8.77095C9.37225 8.9579 9.31161 9.14367 9.19591 9.30032L8.47612 10.2741L10.0565 10.4459C10.1021 10.4505 10.1455 10.4459 10.1839 10.4319C10.2217 10.4179 10.2573 10.3934 10.2896 10.3597L11.4677 9.12561L11.4681 9.12568ZM9.78763 3.74447H6.63146C6.56081 3.74447 6.49684 3.77475 6.45012 3.82367C6.4034 3.87259 6.37447 3.94015 6.37447 4.01352C6.37447 4.08748 6.4034 4.15446 6.45012 4.20337C6.49685 4.25229 6.56137 4.28258 6.63146 4.28258H9.78763C9.85827 4.28258 9.9228 4.25229 9.96952 4.20337C10.0162 4.15446 10.0452 4.0869 10.0452 4.01352C10.0452 3.93956 10.0162 3.87259 9.96952 3.82367C9.9228 3.77476 9.85827 3.74447 9.78763 3.74447Z" stroke="white" stroke-width="0.4" mask="url(#path-1-outside-1_1_1491)"/>
</svg>