<svg width="10" height="10" viewBox="0 0 10 10" fill="none" xmlns="http://www.w3.org/2000/svg">
<path d="M8.92193 3.5625C8.53131 3.17969 8.00787 2.96875 7.45313 2.96875C6.89649 2.96875 6.37503 3.17969 5.98433 3.5625L5.37495 4.14844C5.3437 4.17969 5.3437 4.23047 5.37495 4.25977L5.75386 4.63282C5.78315 4.66212 5.83198 4.66212 5.86324 4.63282L6.46871 4.04493C6.73238 3.78907 7.08004 3.64845 7.45113 3.64845C7.82222 3.64845 8.16988 3.78907 8.43355 4.04493C8.69527 4.30079 8.83785 4.64063 8.83785 5.00196C8.83785 5.36134 8.69332 5.70118 8.43355 5.95313C8.16988 6.20899 7.82222 6.34961 7.45113 6.34961C7.08004 6.34961 6.73238 6.20899 6.46871 5.95313L4.01561 3.56253C3.62108 3.17972 3.09959 2.96878 2.54681 2.96878C1.99017 2.96878 1.46871 3.17972 1.07801 3.56253C0.685428 3.94534 0.468628 4.45511 0.468628 5.00003C0.468628 5.543 0.685428 6.05473 1.07801 6.43753C1.46863 6.82034 1.99207 7.03128 2.54681 7.03128C3.10345 7.03128 3.62491 6.82034 4.01561 6.43753L4.62108 5.85159C4.65233 5.82034 4.65233 5.76956 4.62108 5.74026L4.24217 5.37112C4.21287 5.34182 4.16404 5.34182 4.13279 5.37112L3.52732 5.9551C3.26365 6.21096 2.91599 6.35158 2.5449 6.35158C2.17381 6.35158 1.82615 6.21096 1.56248 5.9551C1.30076 5.69924 1.15818 5.3594 1.15818 4.99807C1.15818 4.63869 1.30271 4.3008 1.56248 4.0469C1.82615 3.79104 2.17381 3.65042 2.5449 3.65042C2.91599 3.65042 3.26365 3.79104 3.52732 4.0469L5.97852 6.4395C6.37305 6.82231 6.89454 7.03325 7.44732 7.03325C8.00396 7.03325 8.52542 6.82231 8.91612 6.4395C9.31065 6.05669 9.52745 5.54692 9.52745 5.002C9.53135 4.45708 9.31451 3.9454 8.92193 3.5625Z" fill="white"/>
</svg>
