<svg width="10" height="10" viewBox="0 0 10 10" fill="none" xmlns="http://www.w3.org/2000/svg">
<g clip-path="url(#clip0_934_14562)">
<path d="M7.2781 3.4266H5.1093L6.4843 0.3125H4.1218L2.7218 4.7094H4.5437L2.9828 9.6875L7.2781 3.4266Z" fill="white"/>
<path d="M1.24996 4.99961C1.25113 4.33945 1.42652 3.69101 1.75855 3.12071C2.09058 2.55001 2.56714 2.07691 3.14055 1.74961L3.43743 0.802734C2.37263 1.19492 1.49723 1.97733 0.98783 2.99143C0.47845 4.00513 0.37338 5.17503 0.69447 6.26333C1.01517 7.35163 1.73787 8.27744 2.71557 8.85284L2.94057 8.13252C1.88587 7.43916 1.25037 6.26182 1.24997 4.99972L1.24996 4.99961Z" fill="white"/>
<path d="M6.75774 0.880859L6.46399 1.54805C7.53309 2.00235 8.33159 2.92615 8.62569 4.05005C8.91983 5.17385 8.67647 6.37075 7.9671 7.29025C7.25733 8.21017 6.1616 8.74885 4.9999 8.74965C4.73428 8.74848 4.46904 8.71957 4.20928 8.66371L3.76709 9.30746C5.24169 9.72816 6.82879 9.36527 7.97409 8.34613C9.11939 7.32703 9.66389 5.79263 9.41749 4.27933C9.17101 2.76603 8.16754 1.48396 6.75774 0.880859Z" fill="white"/>
</g>
<defs>
<clipPath id="clip0_934_14562">
<rect width="10" height="10" fill="white"/>
</clipPath>
</defs>
</svg>
