<svg width="28" height="32" viewBox="0 0 28 32" fill="none" xmlns="http://www.w3.org/2000/svg">
<g clip-path="url(#clip0_2318_4038)">
<path d="M23.3333 0H4.66667C2.08934 0 0 2.0467 0 4.57143C0 7.09616 2.08934 9.14286 4.66667 9.14286H23.3333C25.9107 9.14286 28 7.09616 28 4.57143C28 2.0467 25.9107 0 23.3333 0Z" fill="#515AD9"/>
<path d="M15.1667 11.4277H4.66667C2.08934 11.4277 0 13.4744 0 15.9992C0 18.5239 2.08934 20.5706 4.66667 20.5706H15.1667C17.744 20.5706 19.8333 18.5239 19.8333 15.9992C19.8333 13.4744 17.744 11.4277 15.1667 11.4277Z" fill="#515AD9"/>
<path d="M7 22.8574H4.66667C2.08934 22.8574 0 24.9041 0 27.4289C0 29.9536 2.08934 32.0003 4.66667 32.0003H7C9.57733 32.0003 11.6667 29.9536 11.6667 27.4289C11.6667 24.9041 9.57733 22.8574 7 22.8574Z" fill="#515AD9"/>
</g>
<defs>
<clipPath id="clip0_2318_4038">
<rect width="28" height="32" fill="white"/>
</clipPath>
</defs>
</svg>
