<!-- <svg width="28" height="32" viewBox="0 0 28 32" fill="none" xmlns="http://www.w3.org/2000/svg">
<g clip-path="url(#clip0_2318_4038)">
<path d="M23.3333 0H4.66667C2.08934 0 0 2.0467 0 4.57143C0 7.09616 2.08934 9.14286 4.66667
9.14286H23.3333C25.9107 9.14286 28 7.09616 28 4.57143C28 2.0467 25.9107 0 23.3333 0Z"
fill="#515AD9"/>
<path d="M15.1667 11.4277H4.66667C2.08934 11.4277 0 13.4744 0 15.9992C0 18.5239 2.08934 20.5706
4.66667 20.5706H15.1667C17.744 20.5706 19.8333 18.5239 19.8333 15.9992C19.8333 13.4744 17.744
11.4277 15.1667 11.4277Z" fill="#515AD9"/>
<path d="M7 22.8574H4.66667C2.08934 22.8574 0 24.9041 0 27.4289C0 29.9536 2.08934 32.0003 4.66667
32.0003H7C9.57733 32.0003 11.6667 29.9536 11.6667 27.4289C11.6667 24.9041 9.57733 22.8574 7
22.8574Z" fill="#515AD9"/>
</g>
<defs>
<clipPath id="clip0_2318_4038">
<rect width="28" height="32" fill="white"/>
</clipPath>
</defs>
</svg> -->
<svg width="28" height="32" viewBox="0 0 28 32" fill="none" xmlns="http://www.w3.org/2000/svg">
    <path
        d="M65 139.125C65 132.014 70.7457 126.25 77.8333 126.25V126.25C84.921 126.25 90.6667 132.014 90.6667 139.125V139.125C90.6667 146.236 84.921 152 77.8333 152V152C70.7457 152 65 146.236 65 139.125V139.125Z"
        fill="#525ED1" />
    <path
        d="M65 100.5C65 93.3893 70.7457 87.625 77.8333 87.625H103.5C110.588 87.625 116.333 93.3893 116.333 100.5V100.5C116.333 107.611 110.588 113.375 103.5 113.375H77.8333C70.7457 113.375 65 107.611 65 100.5V100.5Z"
        fill="#525ED1" />
    <path
        d="M65 61.875C65 54.7643 70.7457 49 77.8333 49H129.167C136.254 49 142 54.7643 142 61.875V61.875C142 68.9857 136.254 74.75 129.167 74.75H77.8333C70.7457 74.75 65 68.9857 65 61.875V61.875Z"
        fill="#525ED1" />
</svg>
    