<svg width="114" height="38" viewBox="0 0 114 38" fill="none" xmlns="http://www.w3.org/2000/svg">
<g clip-path="url(#clip0_2209_9448)">
<path d="M23.3333 3H4.66667C2.08934 3 0 5.0467 0 7.57143C0 10.0962 2.08934 12.1429 4.66667 12.1429H23.3333C25.9107 12.1429 28 10.0962 28 7.57143C28 5.0467 25.9107 3 23.3333 3Z" fill="#515AD9"/>
<path d="M15.1667 14.4287H4.66667C2.08934 14.4287 0 16.4754 0 19.0001C0 21.5249 2.08934 23.5716 4.66667 23.5716H15.1667C17.744 23.5716 19.8333 21.5249 19.8333 19.0001C19.8333 16.4754 17.744 14.4287 15.1667 14.4287Z" fill="#515AD9"/>
<path d="M7 25.8574H4.66667C2.08934 25.8574 0 27.9041 0 30.4289C0 32.9536 2.08934 35.0003 4.66667 35.0003H7C9.57733 35.0003 11.6667 32.9536 11.6667 30.4289C11.6667 27.9041 9.57733 25.8574 7 25.8574Z" fill="#515AD9"/>
</g>
<path d="M42.7486 31V7.72727H57.6577V11.2614H46.9645V17.5795H56.6349V21.1136H46.9645V31H42.7486ZM60.3168 31V13.5455H64.4304V31H60.3168ZM62.3849 11.0682C61.7334 11.0682 61.1728 10.8523 60.7031 10.4205C60.2334 9.98106 59.9986 9.45454 59.9986 8.84091C59.9986 8.2197 60.2334 7.69318 60.7031 7.26136C61.1728 6.82197 61.7334 6.60227 62.3849 6.60227C63.044 6.60227 63.6046 6.82197 64.0668 7.26136C64.5365 7.69318 64.7713 8.2197 64.7713 8.84091C64.7713 9.45454 64.5365 9.98106 64.0668 10.4205C63.6046 10.8523 63.044 11.0682 62.3849 11.0682ZM71.7741 20.7727V31H67.6605V13.5455H71.5923V16.5114H71.7969C72.1984 15.5341 72.8385 14.7576 73.7173 14.1818C74.6037 13.6061 75.6984 13.3182 77.0014 13.3182C78.206 13.3182 79.2552 13.5758 80.1491 14.0909C81.0507 14.6061 81.7476 15.3523 82.2401 16.3295C82.7401 17.3068 82.9863 18.4924 82.9787 19.8864V31H78.8651V20.5227C78.8651 19.3561 78.562 18.4432 77.956 17.7841C77.3575 17.125 76.5279 16.7955 75.4673 16.7955C74.7476 16.7955 74.1075 16.9545 73.5469 17.2727C72.9938 17.5833 72.5582 18.0341 72.2401 18.625C71.9295 19.2159 71.7741 19.9318 71.7741 20.7727ZM95.0014 13.5455V16.7273H84.6832V13.5455H95.0014ZM87.2628 31V11.8977C87.2628 10.7235 87.5052 9.74621 87.9901 8.96591C88.4825 8.18561 89.1416 7.60227 89.9673 7.21591C90.7931 6.82954 91.7098 6.63636 92.7173 6.63636C93.4295 6.63636 94.062 6.69318 94.6151 6.80682C95.1681 6.92045 95.5772 7.02273 95.8423 7.11364L95.0241 10.2955C94.8499 10.2424 94.6302 10.1894 94.3651 10.1364C94.0999 10.0758 93.8045 10.0455 93.4787 10.0455C92.7135 10.0455 92.1719 10.2311 91.8537 10.6023C91.5431 10.9659 91.3878 11.4886 91.3878 12.1705V31H87.2628ZM99.7798 37.5455C99.2192 37.5455 98.7003 37.5 98.223 37.4091C97.7533 37.3258 97.3783 37.2273 97.098 37.1136L98.0526 33.9091C98.651 34.0833 99.1851 34.1667 99.6548 34.1591C100.125 34.1515 100.537 34.0038 100.893 33.7159C101.257 33.4356 101.564 32.9659 101.814 32.3068L102.166 31.3636L95.8366 13.5455H100.2L104.223 26.7273H104.405L108.439 13.5455H112.814L105.825 33.1136C105.5 34.0379 105.068 34.8295 104.53 35.4886C103.992 36.1553 103.333 36.6629 102.553 37.0114C101.78 37.3674 100.856 37.5455 99.7798 37.5455Z" fill="white"/>
<defs>
<clipPath id="clip0_2209_9448">
<rect width="28" height="32" fill="white" transform="translate(0 3)"/>
</clipPath>
</defs>
</svg>
