<svg width="200" height="200" viewBox="0 0 200 200" fill="none" xmlns="http://www.w3.org/2000/svg">
<path d="M65 139.125C65 132.014 70.7457 126.25 77.8333 126.25V126.25C84.921 126.25 90.6667 132.014 90.6667 139.125V139.125C90.6667 146.236 84.921 152 77.8333 152V152C70.7457 152 65 146.236 65 139.125V139.125Z" fill="#525ED1"/>
<path d="M65 100.5C65 93.3893 70.7457 87.625 77.8333 87.625H103.5C110.588 87.625 116.333 93.3893 116.333 100.5V100.5C116.333 107.611 110.588 113.375 103.5 113.375H77.8333C70.7457 113.375 65 107.611 65 100.5V100.5Z" fill="#525ED1"/>
<path d="M65 61.875C65 54.7643 70.7457 49 77.8333 49H129.167C136.254 49 142 54.7643 142 61.875V61.875C142 68.9857 136.254 74.75 129.167 74.75H77.8333C70.7457 74.75 65 68.9857 65 61.875V61.875Z" fill="#525ED1"/>
</svg>
