<svg width="16" height="16" viewBox="0 0 16 16" fill="none" xmlns="http://www.w3.org/2000/svg">
<path d="M13.5695 10.2362L14.0334 10.4227C14.1081 10.2368 14.0646 10.0243 13.923 9.8827C13.7814 9.74106 13.5689 9.69762 13.383 9.77231L13.5695 10.2362ZM5.76388 2.43066L6.22781 2.61711C6.30251 2.43125 6.25907 2.21875 6.11743 2.07711C5.97579 1.93547 5.76329 1.89203 5.57743 1.96673L5.76388 2.43066ZM13.383 9.77231C12.7502 10.0266 12.0588 10.1668 11.3333 10.1668V11.1668C12.1887 11.1668 13.0066 11.0013 13.7559 10.7002L13.383 9.77231ZM11.3333 10.1668C8.29577 10.1668 5.83333 7.70436 5.83333 4.66679H4.83333C4.83333 8.25664 7.74348 11.1668 11.3333 11.1668V10.1668ZM5.83333 4.66679C5.83333 3.94135 5.97352 3.24989 6.22781 2.61711L5.29994 2.24422C4.9988 2.99355 4.83333 3.81146 4.83333 4.66679H5.83333ZM2.5 8.00012C2.5 5.68786 3.92704 3.7077 5.95032 2.8946L5.57743 1.96673C3.18827 2.92686 1.5 5.26573 1.5 8.00012H2.5ZM8 13.5001C4.96243 13.5001 2.5 11.0377 2.5 8.00012H1.5C1.5 11.59 4.41015 14.5001 8 14.5001V13.5001ZM13.1055 10.0498C12.2924 12.0731 10.3123 13.5001 8 13.5001V14.5001C10.7344 14.5001 13.0733 12.8119 14.0334 10.4227L13.1055 10.0498Z" fill="#D1D5DB"/>
</svg>
