<svg viewBox="0 0 14 16" fill="none" xmlns="http://www.w3.org/2000/svg">
<path d="M10.9531 3.04688C10.2695 2.39062 9.20312 2.39062 8.51953 3.04688L3.48828 8.07812C2.33984 9.22656 2.33984 11.1133 3.48828 12.2617C4.63672 13.4102 6.52344 13.4102 7.67188 12.2617L11.8281 8.10547C12.1289 7.80469 12.5938 7.80469 12.8945 8.10547C13.1953 8.40625 13.1953 8.87109 12.8945 9.17188L8.73828 13.3281C6.98828 15.0781 4.17188 15.0781 2.42188 13.3281C0.671875 11.5781 0.671875 8.76172 2.42188 7.01172L7.45312 1.98047C8.71094 0.695312 10.7617 0.695312 12.0195 1.98047C13.3047 3.23828 13.3047 5.28906 12.0195 6.54688L7.20703 11.3594C6.44141 12.1523 5.15625 12.1523 4.39062 11.3594C3.59766 10.5938 3.59766 9.30859 4.39062 8.54297L8.32812 4.60547C8.62891 4.30469 9.09375 4.30469 9.39453 4.60547C9.69531 4.90625 9.69531 5.37109 9.39453 5.67188L5.45703 9.60938C5.29297 9.80078 5.29297 10.1016 5.45703 10.293C5.64844 10.457 5.94922 10.457 6.14062 10.293L10.9531 5.48047C11.6094 4.79688 11.6094 3.73047 10.9531 3.04688Z" fill="current"/>
</svg>
