<svg xmlns="http://www.w3.org/2000/svg" width="16" height="16" viewBox="0 0 16 16" fill="none">
<path d="M2.66667 2.66666V1.99999H2V2.66666H2.66667ZM13.3333 2.66666H14V1.99999H13.3333V2.66666ZM4.19526 7.52858C3.93491 7.78893 3.93491 8.21104 4.19526 8.47139C4.45561 8.73174 4.87772 8.73174 5.13807 8.47139L4.19526 7.52858ZM6.66667 5.99999L7.13807 5.52859C6.87772 5.26824 6.45561 5.26824 6.19526 5.52859L6.66667 5.99999ZM8.66667 7.99999L8.19526 8.47139C8.45561 8.73174 8.87772 8.73174 9.13807 8.47139L8.66667 7.99999ZM11.8047 5.80473C12.0651 5.54438 12.0651 5.12227 11.8047 4.86192C11.5444 4.60157 11.1223 4.60157 10.8619 4.86192L11.8047 5.80473ZM4.86193 13.5286C4.60158 13.7889 4.60158 14.211 4.86193 14.4714C5.12228 14.7317 5.54439 14.7317 5.80474 14.4714L4.86193 13.5286ZM8 11.3333L8.4714 10.8619C8.21105 10.6016 7.78894 10.6016 7.52859 10.8619L8 11.3333ZM10.1953 14.4714C10.4556 14.7317 10.8777 14.7317 11.1381 14.4714C11.3984 14.211 11.3984 13.7889 11.1381 13.5286L10.1953 14.4714ZM2 1.99999C1.63181 1.99999 1.33333 2.29847 1.33333 2.66666C1.33333 3.03485 1.63181 3.33332 2 3.33332V1.99999ZM14 3.33332C14.3682 3.33332 14.6667 3.03485 14.6667 2.66666C14.6667 2.29847 14.3682 1.99999 14 1.99999V3.33332ZM2.66667 3.33332H13.3333V1.99999H2.66667V3.33332ZM12.6667 2.66666V10.6667H14V2.66666H12.6667ZM12.6667 10.6667H3.33333V12H12.6667V10.6667ZM3.33333 10.6667V2.66666H2V10.6667H3.33333ZM3.33333 10.6667H2C2 11.403 2.59695 12 3.33333 12V10.6667ZM12.6667 10.6667V12C13.403 12 14 11.403 14 10.6667H12.6667ZM5.13807 8.47139L7.13807 6.47139L6.19526 5.52859L4.19526 7.52858L5.13807 8.47139ZM6.19526 6.47139L8.19526 8.47139L9.13807 7.52858L7.13807 5.52859L6.19526 6.47139ZM9.13807 8.47139L11.8047 5.80473L10.8619 4.86192L8.19526 7.52858L9.13807 8.47139ZM5.80474 14.4714L8.4714 11.8047L7.52859 10.8619L4.86193 13.5286L5.80474 14.4714ZM7.52859 11.8047L10.1953 14.4714L11.1381 13.5286L8.4714 10.8619L7.52859 11.8047ZM2 3.33332H14V1.99999H2V3.33332Z" fill="white"/>
</svg>