<svg width="18" height="19" viewBox="0 0 18 19" fill="none" xmlns="http://www.w3.org/2000/svg">
<path d="M15.7 9.4998C15.7 13.2001 12.7004 16.1998 9.00005 16.1998C5.29974 16.1998 2.30005 13.2001 2.30005 9.4998C2.30005 5.7995 5.29974 2.7998 9.00005 2.7998C12.7004 2.7998 15.7 5.7995 15.7 9.4998ZM8.65272 7.50082C8.72357 7.37834 8.85295 7.2998 9.00006 7.2998C9.22098 7.2998 9.40006 7.47889 9.40006 7.6998C9.40006 7.92072 9.22098 8.0998 9.00006 8.0998C8.22686 8.0998 7.60006 8.72661 7.60006 9.4998V10.3998C7.60006 11.0442 8.03536 11.5868 8.62793 11.7498C8.03535 11.9128 7.60005 12.4555 7.60005 13.0998C7.60005 13.873 8.22685 14.4998 9.00005 14.4998C9.77325 14.4998 10.4 13.873 10.4 13.0998C10.4 12.4555 9.96475 11.9128 9.37218 11.7498C9.90741 11.6026 10.3143 11.1456 10.3881 10.5838C11.4597 10.0671 12.2001 8.97042 12.2001 7.6998C12.2001 5.93249 10.7674 4.4998 9.00006 4.4998C7.81358 4.4998 6.78006 5.1462 6.22902 6.09879C5.84186 6.76807 6.07057 7.62449 6.73985 8.01165C7.40914 8.39881 8.26556 8.17011 8.65272 7.50082Z" fill="white" stroke="white"/>
</svg>
