<svg viewBox="0 0 15 15" fill="none" xmlns="http://www.w3.org/2000/svg">
<path d="M11.375 6.4375C11.375 7.69531 10.9648 8.87109 10.2812 9.80078L13.7266 13.2734C14.082 13.6016 14.082 14.1758 13.7266 14.5039C13.3984 14.8594 12.8242 14.8594 12.4961 14.5039L9.02344 11.0312C8.09375 11.7422 6.91797 12.125 5.6875 12.125C2.54297 12.125 0 9.58203 0 6.4375C0 3.32031 2.54297 0.75 5.6875 0.75C8.80469 0.75 11.375 3.32031 11.375 6.4375ZM5.6875 10.375C7.08203 10.375 8.36719 9.63672 9.07812 8.40625C9.78906 7.20312 9.78906 5.69922 9.07812 4.46875C8.36719 3.26562 7.08203 2.5 5.6875 2.5C4.26562 2.5 2.98047 3.26562 2.26953 4.46875C1.55859 5.69922 1.55859 7.20312 2.26953 8.40625C2.98047 9.63672 4.26562 10.375 5.6875 10.375Z" fill="current"/>
</svg>
