<svg width="89" height="96" viewBox="0 0 89 96" fill="none" xmlns="http://www.w3.org/2000/svg">
<g filter="url(#filter0_b_223_20668)">
<path d="M80.6255 17.597C83.7305 19.0039 85.8005 21.9936 85.8005 25.3351C85.8005 64.3776 62.3405 86.0093 47.5055 92.3405C45.4355 93.2198 43.193 93.2198 41.123 92.3405C22.6655 84.4265 3.00049 60.3327 3.00049 25.3351C3.00049 21.9936 4.89799 19.0039 8.00299 17.597L41.123 3.5276C42.158 3.17587 43.193 3 44.4005 3C45.4355 3 46.4705 3.17587 47.5055 3.5276L80.6255 17.597Z" fill="#515AD9" fill-opacity="0.1"/>
<path d="M81.2446 16.2307L81.2284 16.2233L81.212 16.2164L48.092 2.14701L48.0408 2.12526L47.9881 2.10737C46.8065 1.7058 45.6087 1.5 44.4005 1.5C43.0331 1.5 41.8348 1.70146 40.6403 2.10737L40.5877 2.12526L40.5365 2.14701L7.41651 16.2164L7.40012 16.2233L7.3839 16.2307C3.74014 17.8817 1.50049 21.4074 1.50049 25.3351C1.50049 60.8899 21.4848 85.5523 40.5319 93.7191L40.5365 93.7211C42.9813 94.7596 45.6472 94.7596 48.092 93.7211L48.0943 93.7201C63.4262 87.1768 87.3005 65.0368 87.3005 25.3351C87.3005 21.3549 84.839 17.8594 81.2446 16.2307Z" stroke="#515AD9" stroke-width="3"/>
</g>
<path d="M76.2985 21.4413L76.288 21.4367L76.2773 21.4324L47.4773 9.7134L47.4441 9.69988L47.4099 9.68877C46.4152 9.36495 45.4108 9.2002 44.4004 9.2002C43.2485 9.2002 42.2438 9.36228 41.2408 9.68877L41.2067 9.69988L41.1735 9.7134L12.3735 21.4324L12.3628 21.4367L12.3522 21.4413C9.30255 22.765 7.40039 25.6056 7.40039 28.804C7.40039 58.339 24.7259 79.4219 41.1705 86.1759L41.1735 86.1771C43.2151 87.0079 45.4356 87.0079 47.4773 86.1771L47.4788 86.1765C60.7101 80.7675 81.4004 61.7765 81.4004 28.804C81.4004 25.5705 79.3138 22.75 76.2985 21.4413Z" stroke="#515AD9" stroke-opacity="0.5" stroke-width="2"/>
<path fill-rule="evenodd" clip-rule="evenodd" d="M59.4509 32.1429C60.6033 32.7965 60.9469 34.1647 60.2184 35.1988L44.0467 58.1524C42.803 59.9178 40.074 60.2279 38.3791 58.7965L28.9774 50.8565C27.9846 50.0181 27.9373 48.6163 28.8716 47.7254C29.806 46.8346 31.3683 46.7921 32.3611 47.6305L40.6732 54.6503L56.0453 32.8315C56.7738 31.7975 58.2985 31.4892 59.4509 32.1429Z" fill="#515AD9"/>
<defs>
<filter id="filter0_b_223_20668" x="-19.9995" y="-20" width="128.8" height="136" filterUnits="userSpaceOnUse" color-interpolation-filters="sRGB">
<feFlood flood-opacity="0" result="BackgroundImageFix"/>
<feGaussianBlur in="BackgroundImageFix" stdDeviation="10"/>
<feComposite in2="SourceAlpha" operator="in" result="effect1_backgroundBlur_223_20668"/>
<feBlend mode="normal" in="SourceGraphic" in2="effect1_backgroundBlur_223_20668" result="shape"/>
</filter>
</defs>
</svg>
