<svg width="24" height="19" viewBox="0 0 24 19" fill="none" xmlns="http://www.w3.org/2000/svg">
<path d="M0 16.5C0 15.1193 0.883802 14 3.2892 14C5.69458 14 6.78259 15.1193 6.78259 16.5C6.78259 17.8806 5.69458 19 3.2892 19C0.883802 19 0 17.8806 0 16.5Z" fill="#525ED1"/>
<path d="M0 9.49999C0 8.11928 0.883802 7 3.2892 7H11.9999C14.4053 7 15.1304 8.11928 15.1304 9.49999C15.1304 10.8807 14.4053 12 11.9999 12H3.2892C0.883802 12 0 10.8807 0 9.49999Z" fill="#525ED1"/>
<path d="M0 2.5C0 1.1193 0.883801 0 3.2892 0H20.7106C23.116 0 23.9999 1.1193 23.9999 2.5C23.9999 3.88072 23.116 5 20.7106 5H3.2892C0.883801 5 0 3.88072 0 2.5Z" fill="#525ED1"/>
</svg>
