<svg width="40" height="40" viewBox="0 0 40 40" fill="none" xmlns="http://www.w3.org/2000/svg">
<path d="M28.2052 33.3327H36.4104V29.9993C36.4104 27.2379 34.2062 24.9993 31.4873 24.9993C29.9191 24.9993 28.5222 25.744 27.6206 26.9042M28.2052 33.3327H11.795M28.2052 33.3327V29.9993C28.2052 28.9056 27.9978 27.8611 27.6206 26.9042M11.795 33.3327H3.58984V29.9993C3.58984 27.2379 5.79398 24.9993 8.51292 24.9993C10.0811 24.9993 11.478 25.744 12.3796 26.9042M11.795 33.3327V29.9993C11.795 28.9056 12.0024 27.8611 12.3796 26.9042M12.3796 26.9042C13.5894 23.8344 16.5454 21.666 20.0001 21.666C23.4548 21.666 26.4108 23.8344 27.6206 26.9042M24.9232 11.666C24.9232 14.4274 22.719 16.666 20.0001 16.666C17.2812 16.666 15.077 14.4274 15.077 11.666C15.077 8.90459 17.2812 6.66602 20.0001 6.66602C22.719 6.66602 24.9232 8.90459 24.9232 11.666ZM34.7693 16.666C34.7693 18.507 33.2999 19.9993 31.4873 19.9993C29.6747 19.9993 28.2052 18.507 28.2052 16.666C28.2052 14.8251 29.6747 13.3327 31.4873 13.3327C33.2999 13.3327 34.7693 14.8251 34.7693 16.666ZM11.795 16.666C11.795 18.507 10.3255 19.9993 8.51292 19.9993C6.70029 19.9993 5.23087 18.507 5.23087 16.666C5.23087 14.8251 6.70029 13.3327 8.51292 13.3327C10.3255 13.3327 11.795 14.8251 11.795 16.666Z" stroke="#9CA3AF" stroke-width="2" stroke-linecap="round" stroke-linejoin="round"/>
</svg>
