<svg width="13" height="15" viewBox="0 0 13 15" fill="none" xmlns="http://www.w3.org/2000/svg">
<path d="M6.125 7.75C4.86719 7.75 3.71875 7.09375 3.08984 6C2.46094 4.93359 2.46094 3.59375 3.08984 2.5C3.71875 1.43359 4.86719 0.75 6.125 0.75C7.35547 0.75 8.50391 1.43359 9.13281 2.5C9.76172 3.59375 9.76172 4.93359 9.13281 6C8.50391 7.09375 7.35547 7.75 6.125 7.75ZM4.86719 9.0625H7.35547C10.0625 9.0625 12.25 11.25 12.25 13.957C12.25 14.3945 11.8672 14.75 11.4297 14.75H0.792969C0.355469 14.75 0 14.3945 0 13.957C0 11.25 2.16016 9.0625 4.86719 9.0625Z" fill="#6870DA"/>
</svg>
